<svg xmlns="http://www.w3.org/2000/svg" xml:space="preserve" width="800" height="800" fill="#dcdcdc" viewBox="0 0 469.926 469.926"><path d="M438.944 216.574c-12.048-12.555-25.979-22.758-40.645-31.887-1.341-.871-1.813-1.745-2.146-3.288-2.252-10.136-1.343-20.408-1.378-30.61-.134-21.012.067-42.023-.134-62.965-.203-15.508-12.018-27.322-27.523-28.126-.939-.067-1.879-.067-2.817-.067-52.293 0-104.551 0-156.811.067-5.502 0-10.606-1.613-15.842-2.754-18.761-4.027-36.852-10.203-55.043-16.111-4.733-1.543-9.6-2.618-14.366-3.894h-3.658c.302.673.436 1.476.906 2.082a3680.498 3680.498 0 0 0 15.037 18.728l1.41 1.879H50.748c-14.902 0-26.615 9.733-29.065 24.031-.334 1.88-.403 3.758-.403 5.707 0 23.83-.034 47.66.035 71.558 0 1.745-.471 2.685-2.014 3.422-2.218 1.073-4.33 2.35-6.411 3.757 2.685-.131 5.403-.332 8.39-.538v2.082c0 8.996-.034 17.991 0 26.917.035 1.343-.402 2.217-1.511 2.953-3.859 2.686-7.652 5.305-11.377 8.056-2.886 2.148-5.604 4.364-8.39 6.579v.806c6.342 1.274 12.686 2.617 19.031 3.825 1.778.334 2.282 1.14 2.282 2.953-.035 33.766-.035 67.463-.035 101.229 0 26.916-.034 53.903 0 80.885 0 14.433 9.465 25.979 23.428 28.599 1.879.398 3.893.537 5.838.537h314.827c16.512 0 29-11.953 29.267-28.396.269-16.445.064-32.825.064-49.203v-61.153c6.747 1.343 12.352 4.23 16.614 9.332 7.015 8.255 13.931 16.579 20.878 24.971 3.523 4.297 6.98 8.66 10.539 13.021 1.039 1.211 2.248 2.218 3.491 3.424.368-.47.602-.602.706-.871 5.704-12.287 11.646-24.302 17.049-36.785 2.383-5.505 4.096-11.683 5.304-17.653 1.544-7.585.033-15.306-1.711-22.758-4.598-19.6-14.868-36.045-28.63-50.341zm16.111 82.229c-1.944 10.003-3.824 19.936-8.29 29.402-.672-1.476-1.311-2.953-2.047-4.361-5.103-10.067-11.683-19.066-18.528-27.991-6.311-8.188-14.431-13.828-23.226-18.797-17.487-9.87-36.08-17.249-54.877-24.166-.336-.132-.74-.201-1.176-.064 11.847 6.445 23.695 12.891 35.577 19.334-.104.199-.201.468-.301.67-6.68-1.81-13.461-3.422-20.072-5.501-10.37-3.091-7.219-1.611-31.015-8.795-43.127-11.748-50.008-3.961-50.008-3.961 41.516 4.362 49.707 12.956 71.12 24.033a673.096 673.096 0 0 0-3.088 8.323c-1.543 4.159-3.055 8.321-4.7 12.48-1.007 2.62-.873 5.037.102 7.655 8.56 22.354 17.486 44.704 25.979 67.061.47 1.208.739 2.616.839 3.894v38.462c-.065.738-.065 1.611-.401 2.352 0 .065-.104.133-.136.202-3.76 4.427-8.456 5.436-14.263 5.436-69.612-.201-139.22-.064-208.799-.064-33.262 0-66.523 0-99.751-.067-1.678 0-3.423-.069-5.034-.338-7.787-1.275-12.384-6.779-12.889-15.572-.167-3.76 0-7.52 0-11.344 0-.473.201-1.01.436-1.478 8.559-16.648 15.205-34.101 21.783-51.555.502-1.341 1.008-2.616 1.411-4.026-5.907 11.009-14.298 19.869-23.226 28.262-.268-.067-.504-.137-.737-.201.369-5.504.437-11.076 1.208-16.581 3.02-21.681 6.243-43.362 9.396-65.046 0-.133-.066-.268-.2-.804-3.289 10.874-6.511 21.416-9.7 31.886h-.369v-3.091c0-20.205-.033-40.343 0-60.545 0-1.212.269-2.555.804-3.628 4.564-10.064 9.265-20.07 13.895-30.072 1.277-2.685.335-5.232-2.55-5.907-4.7-1.006-9.397-1.811-14.096-2.548-3.021-.539-6.042-.807-9.6-1.212 1.142-.737 1.88-1.205 2.619-1.742 23.562-15.643 44.572-34.101 63.099-55.517.938-1.073 2.718-2.148 1.746-3.961-.906-1.676-2.887-1.409-4.396-1.074a417.6 417.6 0 0 0-17.857 4.231c-2.854.672-5.605 1.677-8.56 2.281 20.642-17.519 41.284-35.041 62.16-52.761-17.924-12.42-35.681-24.705-53.435-36.989.066-.201.135-.335.201-.537 34.47 6.108 68.94 12.15 103.912 18.258a36768.37 36768.37 0 0 0-31.817-34.369c.872.201 1.343.269 1.745.402 35.409 11.815 70.751 23.697 106.194 35.308 33.899 11.076 66.053 25.844 95.388 46.317 11.85 8.258 22.592 17.79 30.945 29.669 4.128 5.907 7.385 12.219 8.862 19.401.1.538-.202 1.61-.635 1.88-2.888 1.61-4.869 4.027-6.411 6.847-2.755 5.168-4.132 10.675-3.896 16.514.136 3.222-1.072 4.901-4.362 4.901-2.686 0-5.406-.268-7.987-.942-3.425-.871-6.781-2.148-10.173-3.287-.571-.134-1.074-.334-1.644-.538 7.45 4.834 15.037 9.13 24.031 9.935 3.892.334 7.854.065 11.009-2.819 1.042-.939 1.442-1.88.873-3.356-1.613-4.297-.473-8.055 2.75-11.278 1.144-1.139 2.082-1.343 3.626-.472 15.169 9.13 29.199 19.601 41.62 32.222 7.251 7.317 13.659 15.239 19.03 24.102 8.631 14.156 11.048 29.391 7.892 45.637z"/><path d="M254.378 188.716a348.815 348.815 0 0 1-16.478-3.018c-1.343-.27-1.981-.068-2.754 1.073-1.947 2.752-4.834 3.624-8.055 3.019-2.953-.536-5.504-2.281-5.773-5.235-.235-2.953-1.946-3.291-4.026-3.828-.673-.131-1.345-.268-1.947-.537-1.007-.469-1.678-.132-2.416.673-4.766 5.571-6.646 11.946-5.036 19.196 2.349 10.673 12.553 18.193 24.433 18.193.068.133.102.333.135.538 3.457-.871 7.05-1.343 10.271-2.686 10.404-4.163 16.078-14.297 14.231-24.703-.269-1.613-.804-2.351-2.585-2.685z"/></svg>