<svg xmlns="http://www.w3.org/2000/svg" width="682.667" height="682.667" version="1.0" viewBox="0 0 512 512"><path fill="#dcdcdc" d="M22.3 33c-8.4 1.7-15 6.7-19.1 14.4L.5 52.5.2 228.2C0 402.7 0 403.9 2 409.3c2.5 6.7 7.7 12.2 14.4 15.3l5.1 2.4h97.2l2.5 3.7c10.9 16.5 32.5 31.1 57.8 39.3 36.7 11.8 88.3 12.5 156.5 1.9 73.7-11.4 96.7-17.9 114.5-32.8 2.5-2.1 6.9-5 9.9-6.6 9.6-5.3 12.7-13.4 7.7-20.7l-2.4-3.5 2-3.2c1.1-1.7 2.3-3.1 2.8-3.1.4 0 2.8-1.8 5.3-4 6.8-6 7.5-13.1 1.7-18.8-3.2-3.3-4.5-8-2.7-10.2.6-.8 3.8-2.7 6.9-4.2 7.4-3.5 13.4-9 14.9-13.5 2.6-7.9-1.7-15.9-10.8-20l-5.4-2.5 2.3-3.6c1.2-2.1 2.7-4.5 3.2-5.5.6-1 3.8-3.1 7.2-4.7 8.3-4 13.4-8.2 16.6-13.8 8.2-13.9-3.4-28.1-26.3-32.2-4.6-.8-7.3-2-9.8-4.2-4.9-4.3-14.4-8.6-23.2-10.4-8-1.7-31.3-2.1-46.2-.9l-8.7.7-.2-100.8-.3-100.9-2.3-4.5c-3.3-6.3-7.6-10.5-13.6-13.2l-5.1-2.3-173.5-.1c-95.4-.1-175.4.2-177.7.6zM373 183.8v77.8l-7.7 1.3c-4.3.7-15.8 2.8-25.7 4.7-17.5 3.5-18 3.5-27.5 2.2-11-1.4-53.1-1.7-60.6-.4-4.8.8-4.9.9-2 1.7 1.7.4 11.9 2.2 22.8 4l19.9 3.2-21.9 7.3c-18.7 6.2-36.5 13.2-34.1 13.4.5 0 6.8-1.6 14.1-3.5 26.1-6.9 79.6-17.1 109.7-21 27.1-3.4 66-3 85.4 1.1 14.2 2.9 22.1 9.3 26.7 21.4 2.4 6.4 2.4 10.3-.2 15.6-2.3 4.9-.4 4.3-24.9 8-16.4 2.4-21 3.4-16.4 3.4 5 .1 35.8 4 36.5 4.7.4.4 1.2 3.6 1.8 7.1 1.8 11.3-1.9 24.4-9 31.7-1.6 1.7-2.9 3.6-2.9 4.2 0 .9-5.6 1.9-23.2 3.9-3.2.4-5.8 1-5.8 1.4 0 .3 6.9 1.3 15.3 2.1l15.2 1.4.3 4.7c.3 4.6-.9 11-2.7 13.6-.4.8-6.6 3.1-13.7 5.2l-12.9 3.9h10.3c6.4.1 10.2.5 10.2 1.1 0 2.4-3.2 7-7.5 10.8-9.5 8.4-27.3 15.1-55 20.7-80.9 16.4-143.4 20.7-183.2 12.5-32.7-6.8-54.3-21.1-65.8-43.7-21.6-42.6.4-125.6 50-187.8 10.6-13.4 35.2-37.8 50-49.6 27.3-21.8 56.3-39.3 86.6-52.2 17.2-7.3 37.1-13.3 45.2-13.6l2.7-.1v77.8z"/></svg>