<?xml version="1.0" standalone="no"?>
<!DOCTYPE svg PUBLIC "-//W3C//DTD SVG 20010904//EN"
 "http://www.w3.org/TR/2001/REC-SVG-20010904/DTD/svg10.dtd">
<svg version="1.0" xmlns="http://www.w3.org/2000/svg"
 width="512.000000pt" height="512.000000pt" viewBox="0 0 512.000000 512.000000"
 preserveAspectRatio="xMidYMid meet">

<g transform="translate(0.000000,512.000000) scale(0.100000,-0.100000)"
fill="#dcdcdc" stroke="none">
<path d="M223 4790 c-84 -17 -150 -67 -191 -144 l-27 -51 -3 -1757 c-2 -1745
-2 -1757 18 -1811 25 -67 77 -122 144 -153 l51 -24 486 0 486 0 25 -37 c109
-165 325 -311 578 -393 367 -118 883 -125 1565 -19 737 114 967 179 1145 328
25 21 69 50 99 66 96 53 127 134 77 207 l-24 35 20 32 c11 17 23 31 28 31 4 0
28 18 53 40 68 60 75 131 17 188 -32 33 -45 80 -27 102 6 8 38 27 69 42 74 35
134 90 149 135 26 79 -17 159 -108 200 l-54 25 23 36 c12 21 27 45 32 55 6 10
38 31 72 47 83 40 134 82 166 138 82 139 -34 281 -263 322 -46 8 -73 20 -98
42 -49 43 -144 86 -232 104 -80 17 -313 21 -462 9 l-87 -7 -2 1008 -3 1009
-23 45 c-33 63 -76 105 -136 132 l-51 23 -1735 1 c-954 1 -1754 -2 -1777 -6z
m3507 -1508 l0 -778 -77 -13 c-43 -7 -158 -28 -257 -47 -175 -35 -180 -35
-275 -22 -110 14 -531 17 -606 4 -48 -8 -49 -9 -20 -17 17 -4 119 -22 228 -40
l199 -32 -219 -73 c-187 -62 -365 -132 -341 -134 5 0 68 16 141 35 261 69 796
171 1097 210 271 34 660 30 854 -11 142 -29 221 -93 267 -214 24 -64 24 -103
-2 -156 -23 -49 -4 -43 -249 -80 -164 -24 -210 -34 -164 -34 50 -1 358 -40
365 -47 4 -4 12 -36 18 -71 18 -113 -19 -244 -90 -317 -16 -17 -29 -36 -29
-42 0 -9 -56 -19 -232 -39 -32 -4 -58 -10 -58 -14 0 -3 69 -13 153 -21 l152
-14 3 -47 c3 -46 -9 -110 -27 -136 -4 -8 -66 -31 -137 -52 l-129 -39 103 0
c64 -1 102 -5 102 -11 0 -24 -32 -70 -75 -108 -95 -84 -273 -151 -550 -207
-809 -164 -1434 -207 -1832 -125 -327 68 -543 211 -658 437 -216 426 4 1256
500 1878 106 134 352 378 500 496 273 218 563 393 866 522 172 73 371 133 452
136 l27 1 0 -778z"/>
</g>
</svg>
